<svg width="289" height="290" viewBox="0 0 289 290" fill="none" xmlns="http://www.w3.org/2000/svg">
<path d="M125.64 130.121L125.626 106.201C125.626 104.778 125.062 103.411 124.055 102.404L103.375 81.6575L88.9463 97.5958L122.664 131.354C123.764 132.455 125.642 131.674 125.642 130.119L125.64 130.121Z" fill="#c2bfb2"/>
<path d="M79.9546 187.793L39.3121 147.188L24.7871 162.985L78.5513 216.765C79.6501 217.864 81.5267 217.086 81.5267 215.53V191.592C81.5267 190.167 80.9608 188.801 79.9546 187.793Z" fill="#c2bfb2"/>
<path d="M134.095 0.361342C61.149 5.40681 2.85177 65.8619 0.10481 139.019C-2.57631 210.451 46.4821 270.886 112.718 285.712L24.4138 197.286C23.1484 196.018 22.4384 194.299 22.4426 192.506L22.5085 163.939C22.5105 162.745 23.953 162.148 24.7945 162.993L39.3194 147.195C38.4079 146.283 38.4079 144.801 39.3194 143.89L53.2908 129.934C54.2024 129.023 55.6777 129.025 56.5872 129.934L103.789 177.196C105.796 179.204 106.922 181.928 106.922 184.767V234.079C106.922 241.182 109.741 247.995 114.757 253.018L150.747 289.054C159.889 288.662 168.801 287.409 177.418 285.387L131.825 239.722C129.569 237.463 128.302 234.4 128.302 231.207V183.554C128.302 175.742 125.203 168.248 119.685 162.725L71.7768 114.757C70.8652 113.844 70.8651 112.363 71.7787 111.45L85.6535 97.6017C86.565 96.6909 88.0404 96.693 88.9499 97.6037L103.379 81.6657C103.109 81.3567 102.853 81.0189 102.598 80.6685C98.4784 75.1019 95.9746 65.9216 98.8946 55.5691C100.644 48.9413 104.276 43.9432 110.97 37.8697C111.559 37.3361 112.487 37.3093 113.086 37.8285L130.428 52.8722L133.844 55.8409C135.156 56.9803 136.724 57.7879 138.413 58.1896L192.482 71.0577C193.114 71.206 193.695 71.5294 194.151 71.9745L249.689 127.448C250.658 128.377 251.209 129.673 251.209 131.021V142.815C251.209 144.628 250.754 146.414 249.881 148.003L222.396 198.141C221.198 200.336 218.518 201.255 216.229 200.256L203.561 194.728H157.259C154.284 194.728 151.875 197.143 151.875 200.12V220.79C151.875 223.635 152.998 226.368 155 228.386L202.955 276.768C253.459 254.257 288.68 203.542 288.68 144.592C288.68 61.3355 218.439 -5.47937 134.086 0.355159L134.095 0.361342Z" fill="#c2bfb2"/>
</svg>
